<svg width="24px" height="24px" viewBox="0 0 24 24" fill="none" xmlns="http://www.w3.org/2000/svg">
<path d="M20.2071 3.79288C18.9882 2.57392 17.0119 2.57392 15.7929 3.79288L8.68463 10.9012C8.30015 11.2856 8.0274 11.7674 7.89552 12.2949L7.02988 15.7574C6.94468 16.0982 7.04453 16.4587 7.29291 16.7071C7.54129 16.9555 7.90178 17.0553 8.24256 16.9701L11.7051 16.1045C12.2326 15.9726 12.7144 15.6999 13.0988 15.3154L20.2071 8.20709C21.4261 6.98813 21.4261 5.01183 20.2071 3.79288Z" fill="#152C70"/>
<path fill-rule="evenodd" clip-rule="evenodd" d="M2 7C2 4.23858 4.23858 2 7 2H12C12.5523 2 13 2.44772 13 3C13 3.55228 12.5523 4 12 4H7C5.34315 4 4 5.34315 4 7V17C4 18.6569 5.34315 20 7 20H17C18.6569 20 20 18.6569 20 17V12C20 11.4477 20.4477 11 21 11C21.5523 11 22 11.4477 22 12V17C22 19.7614 19.7614 22 17 22H7C4.23858 22 2 19.7614 2 17V7Z" fill="#4296FF"/>
</svg>
